<?xml version="1.0" standalone="no"?>
<!DOCTYPE svg PUBLIC "-//W3C//DTD SVG 20010904//EN"
 "http://www.w3.org/TR/2001/REC-SVG-20010904/DTD/svg10.dtd">
<svg version="1.0" xmlns="http://www.w3.org/2000/svg"
 width="512.000000pt" height="512.000000pt" viewBox="0 0 512.000000 512.000000"
 preserveAspectRatio="xMidYMid meet">
<metadata>
Created by potrace 1.11, written by Peter Selinger 2001-2013
</metadata>
<g transform="translate(0.000000,512.000000) scale(0.100000,-0.100000)"
fill="#000000" stroke="none">
<path d="M2508 4965 c-2 -2 -30 -5 -63 -9 -68 -7 -78 -9 -158 -31 -300 -80
-559 -320 -672 -620 -66 -175 -79 -400 -34 -585 19 -75 51 -162 86 -227 32
-62 33 -63 10 -64 -12 0 -30 -2 -40 -4 -9 -2 -50 -6 -90 -10 -39 -4 -74 -9
-76 -11 -2 -2 -12 9 -22 26 -23 37 -59 46 -123 30 -130 -32 -256 -130 -309
-240 -22 -45 -68 -221 -94 -360 -2 -14 -13 -65 -25 -115 -11 -49 -21 -97 -23
-105 -2 -8 -4 -23 -4 -32 -1 -10 -5 -18 -10 -18 -5 0 -9 29 -10 64 -2 121 -62
198 -163 212 -49 7 -55 5 -403 -100 -190 -58 -254 -82 -268 -99 -14 -18 -17
-41 -16 -125 1 -93 4 -110 30 -161 53 -107 112 -131 316 -131 l144 0 -40 -52
c-56 -75 -99 -167 -120 -256 -18 -72 -19 -131 -20 -870 -2 -857 -3 -824 50
-875 43 -40 77 -43 494 -42 220 1 414 5 432 9 35 8 102 75 104 104 1 9 2 68 3
129 1 62 4 115 7 117 4 4 45 7 289 21 422 25 1443 25 1810 0 30 -2 107 -6 170
-10 63 -4 118 -9 122 -13 4 -4 8 -61 10 -127 4 -138 16 -170 75 -206 l38 -24
426 0 c461 0 457 0 506 55 13 13 27 37 32 53 7 17 10 324 9 814 l0 787 -24 89
c-29 108 -78 205 -137 272 -18 20 -18 20 100 25 165 8 219 37 269 145 20 43
23 63 21 157 -2 82 -6 111 -18 123 -17 17 -600 195 -639 195 -77 0 -148 -50
-178 -124 l-16 -40 -47 225 c-54 251 -80 319 -159 399 -73 75 -160 119 -274
141 -82 15 -213 37 -276 45 -44 6 -44 7 -27 41 72 138 101 389 68 578 -63 359
-330 664 -680 779 -47 15 -96 29 -110 31 -14 2 -48 6 -75 10 -52 7 -173 14
-178 10z m-1651 -2407 c-3 -8 -6 -5 -6 6 -1 11 2 17 5 13 3 -3 4 -12 1 -19z"/>
</g>
</svg>
